HIERARCHY
ROOT Hips
{
	OFFSET 0.00000 0.00000 0.00000
	CHANNELS 6 Xposition Yposition Zposition Zrotation Yrotation Xrotation 
	JOINT LHipJoint
	{
		OFFSET 0 0 0
		CHANNELS 3 Zrotation Yrotation Xrotation
		JOINT LeftHip
		{
			OFFSET 1.54859 -1.61379 0.86856
			CHANNELS 3 Zrotation Yrotation Xrotation
			JOINT LeftKnee
			{
				OFFSET 2.25087 -6.18423 0.00000
				CHANNELS 3 Zrotation Yrotation Xrotation
				JOINT LeftAnkle
				{
					OFFSET 2.40328 -6.60297 0.00000
					CHANNELS 3 Zrotation Yrotation Xrotation
					JOINT LeftToe
					{
						OFFSET 0.17435 -0.47901 2.02453
						CHANNELS 3 Zrotation Yrotation Xrotation
						End Site
						{
							OFFSET 0.00000 -0.00000 1.04844
						}
					}
				}
			}
		}
	}
	JOINT RHipJoint
	{
		OFFSET 0 0 0
		CHANNELS 3 Zrotation Yrotation Xrotation
		JOINT RightHip
		{
			OFFSET -1.54669 -1.61379 0.86856
			CHANNELS 3 Zrotation Yrotation Xrotation
			JOINT RightKnee
			{
				OFFSET -2.28132 -6.26789 0.00000
				CHANNELS 3 Zrotation Yrotation Xrotation
				JOINT RightAnkle
				{
					OFFSET -2.51636 -6.91365 0.00000
					CHANNELS 3 Zrotation Yrotation Xrotation
					JOINT RightToe
					{
						OFFSET -0.15124 -0.41552 2.21090
						CHANNELS 3 Zrotation Yrotation Xrotation
						End Site
						{
							OFFSET -0.00000 -0.00000 1.13399
						}
					}
				}
			}
		}
	}
	JOINT lowerback
	{
		OFFSET 0 0 0
		CHANNELS 3 Zrotation Yrotation Xrotation
		JOINT Chest
		{
			OFFSET -0.04287 2.26161 -0.25690
			CHANNELS 3 Zrotation Yrotation Xrotation
			JOINT Chest2
			{
				OFFSET 0.02248 2.28395 -0.10140
				CHANNELS 3 Zrotation Yrotation Xrotation
				JOINT lowerneck
				{
					OFFSET 0 0 0
					CHANNELS 3 Zrotation Yrotation Xrotation
					JOINT Neck
					{
						OFFSET -0.11644 1.38496 0.11345
						CHANNELS 3 Zrotation Yrotation Xrotation
						JOINT Head
						{
							OFFSET 0.29383 1.36600 0.06642
							CHANNELS 3 Zrotation Yrotation Xrotation
							End Site
							{
								OFFSET 0.11075 1.41395 -0.00294
							}
						}
					}
				}
				JOINT LeftCollar
				{
					OFFSET 0 0 0
					CHANNELS 3 Zrotation Yrotation Xrotation
					JOINT LeftShoulder
					{
						OFFSET 3.51628 0.59542 -0.30346
CHANNELS 3 Zrotation Xrotation Yrotation
						JOINT LeftElbow
						{
OFFSET 0 -4.764050 0.000000
CHANNELS 3 Zrotation Xrotation Yrotation
							JOINT LeftWrist
							{
OFFSET 0 -3.137590 -0.000000
CHANNELS 3 Zrotation Xrotation Yrotation
								JOINT lhand
								{
									OFFSET 0 0 0
CHANNELS 3 Zrotation Xrotation Yrotation
									JOINT LFingers
									{
OFFSET 0 -0.732260 -0.000000
CHANNELS 3 Zrotation Xrotation Yrotation
										End Site
										{
OFFSET 0 -0.590370 -0.000000
										}
									}
								}
								JOINT LThumb
								{
OFFSET 0 0.000000 0.000000
CHANNELS 3 Zrotation Xrotation Yrotation
									End Site
									{
OFFSET 0 -0.599380 0.599380
									}
								}
							}
						}
					}
				}
				JOINT RightCollar
				{
					OFFSET 0 0 0
					CHANNELS 3 Zrotation Yrotation Xrotation
					JOINT RightShoulder
					{
						OFFSET -3.30990 0.84213 -0.36430
CHANNELS 3 Zrotation Xrotation Yrotation
						JOINT RightElbow
						{
OFFSET 0 -5.101610 -0.000000
CHANNELS 3 Zrotation Xrotation Yrotation
							JOINT RightWrist
							{
OFFSET 0 -3.232670 -0.000000
CHANNELS 3 Zrotation Xrotation Yrotation
								JOINT rhand
								{
									OFFSET 0 0 0
CHANNELS 3 Zrotation Xrotation Yrotation
									JOINT RFingers
									{
OFFSET 0 -0.702000 -0.000000
CHANNELS 3 Zrotation Xrotation Yrotation
										End Site
										{
OFFSET 0 -0.565970 -0.000000
										}
									}
								}
								JOINT RThumb
								{
OFFSET 0 0.000000 0.000000
CHANNELS 3 Zrotation Xrotation Yrotation
									End Site
									{
OFFSET 0 -0.574610 0.574610
									}
								}
							}
						}
					}
				}
			}
		}
	}
}
MOTION
Frames: 12
Frame Time: 0.008333333333333333
7.887562 15.400251 -1.618293 -158.797144 70.744836 -154.897174 0.000000 0.000000 0.000000 -19.052601 -9.392649 -34.798374 5.693991 14.121113 43.733178 0.211818 -4.421531 -8.262189 0.060422 1.365948 3.757981 0.000000 0.000000 0.000000 17.840392 -27.755977 5.309381 -21.768189 -19.914552 95.179681 0.308217 -10.183924 -6.759463 -0.110492 -2.143358 5.901891 2.963832 3.838545 12.029705 1.295221 5.775686 6.433854 -0.972711 3.097842 0.166742 -15.168075 -13.742556 0.770149 33.025568 -15.169104 -17.699077 12.935127 -8.098065 -0.803352 0.000000 0.000000 0.000000 -4.724208 9.678046 -42.001938 110.463895 -58.352517 77.623721 21.044211 4.900962 -26.836913 0.000000 0.000000 0.000000 -7.125000 0.000000 0.000000 -10.211930 58.150891 3.303407 0.000000 0.000000 0.000000 -5.306127 -3.310766 32.188484 -16.091650 -25.644412 -3.685686 -22.712999 3.443604 -25.100600 0.000000 0.000000 0.000000 7.125000 0.000000 0.000000 4.167382 3.118418 3.944890
7.989486 15.377353 -1.619880 -159.497431 70.686707 -155.633521 0.000000 0.000000 0.000000 -19.134404 -9.817347 -34.525922 5.842973 14.264939 44.330135 0.237853 -4.377394 -8.690366 0.055265 0.857843 2.360544 0.000000 0.000000 0.000000 17.382176 -27.793732 4.668142 -22.176768 -19.861057 96.385044 0.282650 -9.884373 -6.975589 -0.112475 -2.162073 5.953673 2.768296 3.747836 12.164516 1.229664 5.640659 6.453363 -0.926933 3.027327 0.098426 -15.212826 -13.666667 0.801648 33.145504 -15.057913 -17.670030 13.006382 -8.045796 -0.808256 0.000000 0.000000 0.000000 -4.852023 8.736138 -42.198015 109.843084 -58.447950 77.093962 21.646433 5.417685 -26.835940 0.000000 0.000000 0.000000 -7.125000 0.000000 0.000000 -9.552589 58.286874 3.111622 0.000000 0.000000 0.000000 -5.150780 -3.254097 31.792652 -16.008549 -25.531436 -3.650059 -22.903198 3.764611 -25.111400 0.000000 0.000000 0.000000 7.125000 0.000000 0.000000 4.052945 3.071053 3.839270
8.091410 15.354455 -1.621467 -160.197718 70.628578 -156.369868 0.000000 0.000000 0.000000 -19.216206 -10.242045 -34.253470 5.991956 14.408764 44.927092 0.263888 -4.333256 -9.118544 0.050109 0.349738 0.963107 0.000000 0.000000 0.000000 16.923961 -27.831487 4.026903 -22.585347 -19.807562 97.590407 0.257083 -9.584822 -7.191716 -0.114458 -2.180788 6.005456 2.572760 3.657127 12.299327 1.164107 5.505632 6.472871 -0.881154 2.956811 0.030110 -15.257576 -13.590779 0.833146 33.265440 -14.946722 -17.640984 13.077637 -7.993527 -0.813160 0.000000 0.000000 0.000000 -4.979838 7.794230 -42.394092 109.222273 -58.543383 76.564203 22.248654 5.934408 -26.834966 0.000000 0.000000 0.000000 -7.125000 0.000000 0.000000 -8.893248 58.422857 2.919836 0.000000 0.000000 0.000000 -4.995433 -3.197429 31.396821 -15.925449 -25.418459 -3.614432 -23.093397 4.085618 -25.122200 0.000000 0.000000 0.000000 7.125000 0.000000 0.000000 3.938508 3.023688 3.733650
8.193334 15.331556 -1.623053 -160.898005 70.570449 -157.106215 0.000000 0.000000 0.000000 -19.298008 -10.666742 -33.981018 6.140938 14.552590 45.524049 0.289924 -4.289119 -9.546722 0.044952 -0.158367 -0.434330 0.000000 0.000000 0.000000 16.465745 -27.869242 3.385664 -22.993926 -19.754067 98.795770 0.231517 -9.285271 -7.407842 -0.116442 -2.199503 6.057238 2.377224 3.566418 12.434137 1.098550 5.370605 6.492380 -0.835376 2.886296 -0.038206 -15.302327 -13.514890 0.864645 33.385376 -14.835530 -17.611938 13.148892 -7.941258 -0.818065 0.000000 0.000000 0.000000 -5.107653 6.852323 -42.590169 108.601463 -58.638816 76.034444 22.850876 6.451131 -26.833992 0.000000 0.000000 0.000000 -7.125000 0.000000 0.000000 -8.233907 58.558839 2.728050 0.000000 0.000000 0.000000 -4.840086 -3.140760 31.000989 -15.842348 -25.305483 -3.578804 -23.283596 4.406625 -25.133000 0.000000 0.000000 0.000000 7.125000 0.000000 0.000000 3.824071 2.976323 3.628030
8.295257 15.308658 -1.624640 -161.598292 70.512320 -157.842563 0.000000 0.000000 0.000000 -19.379811 -11.091440 -33.708566 6.289920 14.696416 46.121006 0.315959 -4.244981 -9.974899 0.039795 -0.666472 -1.831767 0.000000 0.000000 0.000000 16.007529 -27.906997 2.744426 -23.402505 -19.700572 100.001133 0.205950 -8.985719 -7.623968 -0.118425 -2.218218 6.109020 2.181688 3.475709 12.568948 1.032992 5.235578 6.511888 -0.789598 2.815780 -0.106521 -15.347078 -13.439002 0.896143 33.505312 -14.724339 -17.582891 13.220146 -7.888989 -0.822969 0.000000 0.000000 0.000000 -5.235468 5.910415 -42.786246 107.980652 -58.734249 75.504685 23.453098 6.967854 -26.833019 0.000000 0.000000 0.000000 -7.125000 0.000000 0.000000 -7.574566 58.694822 2.536265 0.000000 0.000000 0.000000 -4.684739 -3.084092 30.605157 -15.759248 -25.192507 -3.543177 -23.473795 4.727632 -25.143800 0.000000 0.000000 0.000000 7.125000 0.000000 0.000000 3.709635 2.928958 3.522410
8.397181 15.285760 -1.626227 -162.298579 70.454191 -158.578910 0.000000 0.000000 0.000000 -19.461613 -11.516138 -33.436114 6.438903 14.840241 46.717963 0.341995 -4.200843 -10.403077 0.034639 -1.174577 -3.229204 0.000000 0.000000 0.000000 15.549314 -27.944752 2.103187 -23.811084 -19.647077 101.206496 0.180384 -8.686168 -7.840094 -0.120408 -2.236934 6.160803 1.986153 3.384999 12.703759 0.967435 5.100551 6.531397 -0.743819 2.745265 -0.174837 -15.391828 -13.363113 0.927642 33.625247 -14.613148 -17.553845 13.291401 -7.836720 -0.827873 0.000000 0.000000 0.000000 -5.363283 4.968507 -42.982322 107.359841 -58.829682 74.974926 24.055319 7.484578 -26.832045 0.000000 0.000000 0.000000 -7.125000 0.000000 0.000000 -6.915225 58.830805 2.344479 0.000000 0.000000 0.000000 -4.529392 -3.027424 30.209326 -15.676147 -25.079530 -3.507549 -23.663994 5.048639 -25.154600 0.000000 0.000000 0.000000 7.125000 0.000000 0.000000 3.595198 2.881593 3.416790
8.495752 15.260730 -1.624047 -163.424451 70.462092 -159.662775 0.000000 0.000000 0.000000 -19.768210 -11.900805 -33.122461 6.550244 14.937966 47.146165 0.384899 -4.126683 -10.980372 0.046127 -1.347304 -3.705522 0.000000 0.000000 0.000000 14.872425 -28.021145 1.528443 -24.162489 -19.565433 102.261778 0.155780 -8.192636 -7.709012 -0.111352 -2.140904 5.895503 1.572632 3.325414 12.772729 0.871356 4.976890 6.554895 -0.602005 2.676314 -0.213096 -15.464401 -13.341889 0.937405 33.749465 -14.576189 -17.561459 13.358684 -7.820372 -0.817542 0.000000 0.000000 0.000000 -5.497718 3.923668 -43.080816 106.715834 -58.909587 74.422675 24.012441 7.925813 -27.040287 0.000000 0.000000 0.000000 -7.125000 0.000000 0.000000 -7.067211 59.034915 2.435608 0.000000 0.000000 0.000000 -4.401558 -2.990994 29.850257 -15.591413 -24.962926 -3.472042 -23.830945 5.293212 -25.174428 0.000000 0.000000 0.000000 7.125000 0.000000 0.000000 3.496323 2.827952 3.325545
8.594160 15.235596 -1.621685 -164.570982 70.473199 -160.763509 0.000000 0.000000 0.000000 -20.085719 -12.283529 -32.806809 6.659759 15.033454 47.566175 0.428622 -4.051065 -11.564907 0.058424 -1.503751 -4.137125 0.000000 0.000000 0.000000 14.184921 -28.099413 0.956926 -24.511118 -19.482422 103.309775 0.131223 -7.689688 -7.561076 -0.101760 -2.039305 5.614811 1.148529 3.267339 12.838502 0.773795 4.853781 6.578586 -0.455529 2.607439 -0.249895 -15.538324 -13.323318 0.946114 33.873890 -14.542833 -17.570852 13.425774 -7.805767 -0.806472 0.000000 0.000000 0.000000 -5.632474 2.873832 -43.174572 106.070701 -58.988739 73.869333 23.938248 8.363385 -27.258685 0.000000 0.000000 0.000000 -7.125000 0.000000 0.000000 -7.258582 59.242333 2.540471 0.000000 0.000000 0.000000 -4.275059 -2.955547 29.492974 -15.506600 -24.846145 -3.436541 -23.996768 5.534076 -25.194693 0.000000 0.000000 0.000000 7.125000 0.000000 0.000000 3.398204 2.774006 3.234998
8.692568 15.210462 -1.619324 -165.717513 70.484305 -161.864244 0.000000 0.000000 0.000000 -20.403228 -12.666253 -32.491157 6.769273 15.128941 47.986185 0.472344 -3.975447 -12.149441 0.070720 -1.660197 -4.568728 0.000000 0.000000 0.000000 13.497417 -28.177682 0.385410 -24.859747 -19.399412 104.357772 0.106666 -7.186740 -7.413139 -0.092168 -1.937706 5.334120 0.724426 3.209264 12.904276 0.676235 4.730672 6.602278 -0.309053 2.538564 -0.286694 -15.612247 -13.304747 0.954822 33.998316 -14.509477 -17.580246 13.492863 -7.791163 -0.795401 0.000000 0.000000 0.000000 -5.767231 1.823996 -43.268328 105.425568 -59.067891 73.315991 23.864054 8.800956 -27.477083 0.000000 0.000000 0.000000 -7.125000 0.000000 0.000000 -7.449953 59.449750 2.645334 0.000000 0.000000 0.000000 -4.148560 -2.920100 29.135690 -15.421786 -24.729365 -3.401040 -24.162590 5.774939 -25.214959 0.000000 0.000000 0.000000 7.125000 0.000000 0.000000 3.300084 2.720060 3.144451
8.790976 15.185328 -1.616962 -166.864043 70.495412 -162.964978 0.000000 0.000000 0.000000 -20.720737 -13.048977 -32.175505 6.878788 15.224428 48.406195 0.516067 -3.899829 -12.733975 0.083017 -1.816644 -5.000332 0.000000 0.000000 0.000000 12.809914 -28.255950 -0.186107 -25.208376 -19.316402 105.405768 0.082109 -6.683792 -7.265203 -0.082576 -1.836106 5.053428 0.300323 3.151189 12.970049 0.578674 4.607563 6.625969 -0.162577 2.469689 -0.323494 -15.686170 -13.286176 0.963531 34.122741 -14.476122 -17.589640 13.559953 -7.776559 -0.784331 0.000000 0.000000 0.000000 -5.901988 0.774161 -43.362084 104.780434 -59.147043 72.762649 23.789860 9.238527 -27.695481 0.000000 0.000000 0.000000 -7.125000 0.000000 0.000000 -7.641324 59.657168 2.750196 0.000000 0.000000 0.000000 -4.022061 -2.884653 28.778407 -15.336973 -24.612584 -3.365539 -24.328413 6.015803 -25.235225 0.000000 0.000000 0.000000 7.125000 0.000000 0.000000 3.201964 2.666114 3.053904
8.889384 15.160194 -1.614600 -168.010574 70.506518 -164.065713 0.000000 0.000000 0.000000 -21.038246 -13.431701 -31.859853 6.988303 15.319915 48.826205 0.559790 -3.824211 -13.318509 0.095313 -1.973091 -5.431935 0.000000 0.000000 0.000000 12.122410 -28.334219 -0.757624 -25.557005 -19.233391 106.453765 0.057552 -6.180843 -7.117266 -0.072984 -1.734507 4.772736 -0.123780 3.093115 13.035823 0.481114 4.484454 6.649661 -0.016101 2.400815 -0.360293 -15.760094 -13.267605 0.972239 34.247166 -14.442766 -17.599033 13.627043 -7.761954 -0.773260 0.000000 0.000000 0.000000 -6.036744 -0.275675 -43.455841 104.135301 -59.226195 72.209307 23.715667 9.676098 -27.913879 0.000000 0.000000 0.000000 -7.125000 0.000000 0.000000 -7.832695 59.864586 2.855059 0.000000 0.000000 0.000000 -3.895562 -2.849206 28.421124 -15.252160 -24.495803 -3.330038 -24.494235 6.256666 -25.255491 0.000000 0.000000 0.000000 7.125000 0.000000 0.000000 3.103845 2.612168 2.963357
8.990796 15.142362 -1.612113 -169.243636 70.535813 -165.265539 0.000000 0.000000 0.000000 -21.412361 -13.599537 -31.506518 7.072019 15.391962 49.145610 0.601192 -3.821902 -13.833297 0.109784 -2.125813 -5.854077 0.000000 0.000000 0.000000 11.418283 -28.320183 -1.410683 -25.888247 -19.141985 107.459429 0.035280 -5.674568 -7.013947 -0.065060 -1.642303 4.518224 -0.592955 3.050693 13.108913 0.379895 4.376836 6.680837 0.150480 2.339359 -0.391980 -15.841113 -13.249196 0.957692 34.357459 -14.416316 -17.581351 13.685752 -7.747100 -0.750048 0.000000 0.000000 0.000000 -6.148752 -1.280916 -43.559264 103.356023 -59.307029 71.539265 23.741512 10.062743 -28.020925 0.000000 0.000000 0.000000 -7.125000 0.000000 0.000000 -7.855757 59.981264 2.882837 0.000000 0.000000 0.000000 -3.784342 -2.815213 28.074205 -15.165657 -24.376055 -3.294206 -24.609417 6.498154 -25.280722 0.000000 0.000000 0.000000 7.125000 0.000000 0.000000 3.037172 2.562835 2.902450
